#N canvas 0 50 1920 997 10;
#X obj 100 110 cnv 15 100 80 empty empty Enveloppe 10 16 1 16 -66577
-260097 0;
#X obj 56 437 outlet~;
#X obj 111 137 hsl 80 15 1 1000 0 1 empty empty Attaque-165.392 0 8
1 10 -99865 -260097 -260097 1300 1;
#X obj 55 400 line~;
#X obj 140 329 delay 10;
#X obj 197 257 +;
#X obj 111 152 hsl 80 15 1 1000 0 1 empty empty Sustain-342.43 0 8
1 10 -99865 -260097 -260097 2700 1;
#X obj 111 167 hsl 80 15 1 1000 0 1 empty empty Relache-114.81 0 8
1 10 -99865 -260097 -260097 900 1;
#X obj 197 219 t b f;
#X obj 70 272 t b b;
#X obj 71 230 inlet;
#X obj 55 373 pack 1 10;
#X obj 141 373 pack 0 10;
#X obj 151 45 inlet;
#X obj 209 45 inlet;
#X obj 259 45 inlet;
#X msg 336 166 label Attaque-\$1;
#X msg 335 205 label Sustain-\$1;
#X msg 331 229 label Relache-\$1;
#X connect 2 0 5 0;
#X connect 2 0 11 1;
#X connect 2 0 16 0;
#X connect 3 0 1 0;
#X connect 4 0 12 0;
#X connect 5 0 4 1;
#X connect 6 0 8 0;
#X connect 6 0 17 0;
#X connect 7 0 12 1;
#X connect 7 0 18 0;
#X connect 8 0 5 0;
#X connect 8 1 5 1;
#X connect 9 0 4 0;
#X connect 9 1 11 0;
#X connect 10 0 9 0;
#X connect 11 0 3 0;
#X connect 12 0 3 0;
#X connect 13 0 2 0;
#X connect 14 0 6 0;
#X connect 15 0 7 0;
#X connect 16 0 2 0;
#X connect 17 0 6 0;
#X connect 18 0 7 0;
#X coords 0 -1 1 1 100 100 2 100 100;
