#N canvas 0 50 1920 997 10;
#X obj 100 109 cnv 15 100 60 empty empty Pulse 25 12 0 18 -66577 -260097
0;
#X obj 42 228 inlet~;
#X obj 112 276 line~;
#X obj 112 249 pack 0 20;
#X obj 42 450 outlet~;
#X obj 73 329 phasor~;
#X obj 73 354 expr~ $v1 > 0.9;
#X obj 183 215 inlet;
#X obj 43 417 *~ 0.6;
#X obj 111 132 hsl 80 30 0 1000 0 1 empty empty Hz-683.544 5 15 1 12
-99865 -260097 -260097 5400 1;
#X msg 296 248 label Hz-\$1;
#X connect 1 0 5 0;
#X connect 2 0 5 0;
#X connect 3 0 2 0;
#X connect 5 0 6 0;
#X connect 6 0 8 0;
#X connect 7 0 9 0;
#X connect 8 0 4 0;
#X connect 9 0 10 0;
#X connect 9 0 3 0;
#X connect 10 0 9 0;
#X coords 0 -1 1 1 100 80 2 100 100;
