#N canvas 0 50 1920 997 10;
#X obj 100 111 cnv 15 100 80 empty empty Chorus 20 12 1 18 -66577 -260097
0;
#X obj 112 135 hsl 80 20 0 20 0 1 empty empty Vitesse-4.3038 0 10 1
12 -99865 -260097 -260097 1700 1;
#X obj 615 242 cos~;
#X obj 957 300 inlet~;
#X obj 768 462 outlet~;
#X obj 779 242 cos~;
#X obj 779 269 +~ 2;
#X obj 615 268 +~ 2;
#X obj 780 218 +~ 0.5;
#X obj 778 399 *~;
#X obj 780 313 *~ 0.6;
#X obj 615 312 *~ 0.6;
#X obj 710 160 * 20;
#X obj 711 189 phasor~;
#X obj 109 158 tgl 20 0 empty empty Multi 35 10 1 14 -99865 -260097
-260097 0 1;
#X obj 997 437 delwrite~ \$0-chorus1 100;
#X obj 939 458 delwrite~ \$0-chorus2 100;
#X obj 615 290 vd~ \$0-chorus1;
#X obj 780 291 vd~ \$0-chorus2;
#X obj 1165 91 inlet;
#X obj 1226 90 inlet;
#X obj 1226 112 clip 0 1;
#X msg 235 174 label Vitesse-\$1;
#X connect 1 0 12 0;
#X connect 1 0 22 0;
#X connect 2 0 7 0;
#X connect 3 0 15 0;
#X connect 3 0 16 0;
#X connect 5 0 6 0;
#X connect 6 0 18 0;
#X connect 7 0 17 0;
#X connect 8 0 5 0;
#X connect 9 0 4 0;
#X connect 10 0 9 0;
#X connect 11 0 4 0;
#X connect 12 0 13 0;
#X connect 13 0 2 0;
#X connect 13 0 8 0;
#X connect 14 0 9 1;
#X connect 17 0 11 0;
#X connect 18 0 10 0;
#X connect 19 0 1 0;
#X connect 20 0 21 0;
#X connect 21 0 14 0;
#X connect 22 0 1 0;
#X coords 0 -1 1 1 100 100 2 100 100;
