#N canvas 72 96 875 672 12;
#X obj 100 107 cnv 15 300 60 empty empty Arduino 10 14 1 16 -66577
-260097 0;
#X msg 39 220 devices;
#X obj 212 437 list prepend;
#X obj 341 427 t l;
#X msg 39 297 close;
#X obj 32 342 bng 15 250 50 0 empty empty empty 17 7 0 10 -262144 -1
-1;
#X obj 216 579 spigot;
#X msg 376 384 0;
#X msg 323 380 1;
#X obj 201 668 list tosymbol;
#X obj 247 648 list tosymbol;
#X symbolatom 317 619 10 0 0 0 - - -;
#X obj 317 594 list tosymbol;
#X msg 201 761 \$1 \$2;
#X obj 247 693 f;
#X obj 201 733 pack s f;
#X obj 201 616 list split 2;
#X obj 149 938 outlet;
#X obj 120 958 outlet;
#X obj 201 226 inlet;
#X obj 144 143 hradio 20 1 0 4 empty empty Port 0 -8 0 12 -99865 -260097
-260097 0;
#X msg 38 260 open \$1;
#X obj 246 137 bng 30 250 50 0 empty empty Stop 0 -10 0 12 -99865 -260097
-260097;
#X obj 312 137 tgl 30 0 empty empty Audio_ON/OFF 0 -12 0 12 -99865
-260097 -260097 0 1;
#X msg 32 362 0;
#X obj 214 391 spigot;
#X msg 261 359 1;
#X obj 201 263 comport \$1 9600;
#X obj 201 288 t f f;
#X obj 126 612 print;
#X obj 265 303 sel 65 69 68;
#X msg 312 172 \; \; pd dsp \$1;
#X obj 207 898 outlet;
#X obj 178 918 outlet;
#X obj 198 791 route A0 A1 A2 A4 A5 D2 D3 D4 D5 D6 D7 D8 D9;
#X obj 292 931 outlet;
#X obj 263 951 outlet;
#X obj 350 891 outlet;
#X obj 321 911 outlet;
#X obj 442 930 outlet;
#X obj 413 950 outlet;
#X obj 500 890 outlet;
#X obj 471 910 outlet;
#X obj 514 870 outlet;
#X connect 1 0 27 0;
#X connect 2 0 3 0;
#X connect 2 0 6 0;
#X connect 3 0 2 1;
#X connect 4 0 5 0;
#X connect 4 0 27 0;
#X connect 5 0 2 1;
#X connect 5 0 24 0;
#X connect 6 0 16 0;
#X connect 6 0 12 0;
#X connect 7 0 6 1;
#X connect 8 0 6 1;
#X connect 9 0 15 0;
#X connect 10 0 14 0;
#X connect 12 0 11 0;
#X connect 13 0 34 0;
#X connect 14 0 15 1;
#X connect 15 0 13 0;
#X connect 15 0 29 0;
#X connect 16 0 9 0;
#X connect 16 1 10 0;
#X connect 19 0 27 0;
#X connect 20 0 21 0;
#X connect 21 0 27 0;
#X connect 22 0 4 0;
#X connect 23 0 31 0;
#X connect 24 0 25 1;
#X connect 25 0 2 0;
#X connect 26 0 25 1;
#X connect 27 0 28 0;
#X connect 28 0 25 0;
#X connect 28 1 30 0;
#X connect 30 0 26 0;
#X connect 30 0 2 1;
#X connect 30 0 7 0;
#X connect 30 1 8 0;
#X connect 30 2 7 0;
#X connect 30 2 26 0;
#X connect 30 2 2 1;
#X connect 34 0 18 0;
#X connect 34 1 17 0;
#X connect 34 2 33 0;
#X connect 34 3 32 0;
#X connect 34 4 36 0;
#X connect 34 5 35 0;
#X connect 34 6 38 0;
#X connect 34 7 37 0;
#X connect 34 8 40 0;
#X connect 34 9 39 0;
#X connect 34 10 42 0;
#X connect 34 11 41 0;
#X connect 34 12 43 0;
#X coords 0 -1 1 1 300 80 2 100 100;
