#N canvas 0 50 1920 997 10;
#X obj 100 110 cnv 15 100 80 empty empty Phaser 20 12 1 18 -66577 -260097
0;
#X obj 111 139 hsl 80 30 0 20 0 1 empty empty Hz-1.26582 12 16 1 12
-99865 -260097 -260097 500 1;
#X obj 353 323 rpole~;
#X obj 353 298 rzero_rev~;
#X obj 353 372 rpole~;
#X obj 353 347 rzero_rev~;
#X obj 353 420 rpole~;
#X obj 353 395 rzero_rev~;
#X obj 353 469 rpole~;
#X obj 353 444 rzero_rev~;
#X obj 330 499 +~;
#X obj 442 403 phasor~ 0.3;
#X obj 442 435 expr~ 1 - 0.03 - 0.6*abs($v1-0.5)*abs($v1-0.5);
#X obj 300 199 inlet~;
#X obj 294 563 outlet~;
#X obj 327 276 *~ 1;
#X obj 437 179 inlet;
#X obj 437 201 clip 0 20;
#X msg 124 275 label Hz-\$1;
#X connect 1 0 11 0;
#X connect 1 0 18 0;
#X connect 2 0 5 0;
#X connect 3 0 2 0;
#X connect 4 0 7 0;
#X connect 5 0 4 0;
#X connect 6 0 9 0;
#X connect 7 0 6 0;
#X connect 8 0 10 1;
#X connect 9 0 8 0;
#X connect 10 0 14 0;
#X connect 11 0 12 0;
#X connect 12 0 3 1;
#X connect 12 0 2 1;
#X connect 12 0 5 1;
#X connect 12 0 4 1;
#X connect 12 0 7 1;
#X connect 12 0 6 1;
#X connect 12 0 9 1;
#X connect 12 0 8 1;
#X connect 13 0 15 0;
#X connect 15 0 3 0;
#X connect 15 0 10 0;
#X connect 16 0 17 0;
#X connect 17 0 1 0;
#X connect 18 0 1 0;
#X coords 0 -1 1 1 100 100 2 100 100;
