#N canvas 0 50 1920 997 10;
#X obj 100 110 cnv 15 100 60 empty empty Saw 25 12 0 18 -66577 -260097
0;
#X obj 42 239 inlet~;
#X obj 137 323 line~;
#X obj 137 296 pack 0 20;
#X obj 42 461 outlet~;
#X obj 44 372 phasor~;
#X obj 215 226 inlet;
#X obj 43 428 *~ 0.6;
#X obj 111 132 hsl 80 30 0 1000 0 1 empty empty Hz-481.013 5 15 1 12
-99865 -260097 -260097 3800 1;
#X msg 296 248 label Hz-\$1;
#X connect 1 0 5 0;
#X connect 2 0 5 0;
#X connect 3 0 2 0;
#X connect 5 0 7 0;
#X connect 6 0 8 0;
#X connect 7 0 4 0;
#X connect 8 0 9 0;
#X connect 8 0 3 0;
#X connect 9 0 8 0;
#X coords 0 -1 1 1 100 80 2 100 100;
