#N canvas 0 50 1920 997 10;
#X obj 100 110 cnv 15 200 60 empty empty Sélecteur_aléatoire 10 18
1 16 -66577 -260097 0;
#X obj 94 299 outlet;
#X obj 152 299 outlet;
#X obj 209 299 outlet;
#X obj 267 299 outlet;
#X obj 322 299 outlet;
#X obj 380 299 outlet;
#X obj 437 299 outlet;
#X obj 495 299 outlet;
#X obj 219 228 random 8;
#X obj 219 253 select 0 1 2 3 4 5 6 7;
#X obj 280 203 + 1;
#X obj 122 137 hradio 20 1 0 8 empty empty empty 0 -8 0 10 -99865 -260097
-1 0;
#X obj 35 128 inlet;
#X obj 35 153 bang;
#X connect 9 0 10 0;
#X connect 10 0 1 0;
#X connect 10 1 2 0;
#X connect 10 2 3 0;
#X connect 10 3 4 0;
#X connect 10 4 5 0;
#X connect 10 5 6 0;
#X connect 10 6 7 0;
#X connect 10 7 8 0;
#X connect 11 0 9 1;
#X connect 12 0 11 0;
#X connect 13 0 14 0;
#X connect 14 0 9 0;
#X coords 0 -1 1 1 200 80 2 100 100;
