#N canvas 0 50 1920 997 10;
#X obj 101 112 cnv 15 100 80 empty empty Delay 24 10 1 18 -66577 -260097
0;
#X obj 111 134 hsl 80 20 10 10000 1 1 empty empty Temps-213.36 0 10
1 12 -99865 -260097 -260097 3500 1;
#X obj 111 157 hsl 80 20 0 0.9 0 1 empty empty Boucle-0.672152 0 10
1 10 -99865 -260097 -260097 5900 1;
#X obj 333 144 inlet~;
#X obj 243 481 outlet~;
#X obj 413 378 *~ 0.7;
#X obj 286 397 +~;
#X obj 413 307 delread~ \$0-delay1 400;
#X obj 370 453 delwrite~ \$0-delay1 10000;
#X obj 553 79 inlet;
#X obj 614 78 inlet;
#X obj 614 100 clip 0 1;
#X msg 520 183 label Temps-\$1;
#X msg 519 209 label Boucle-\$1;
#X connect 1 0 7 0;
#X connect 1 0 12 0;
#X connect 2 0 5 1;
#X connect 2 0 13 0;
#X connect 3 0 6 0;
#X connect 3 0 8 0;
#X connect 5 0 6 1;
#X connect 5 0 8 0;
#X connect 6 0 4 0;
#X connect 7 0 5 0;
#X connect 9 0 1 0;
#X connect 10 0 11 0;
#X connect 11 0 2 0;
#X connect 12 0 1 0;
#X connect 13 0 2 0;
#X coords 0 -1 1 1 100 100 2 100 100;
