#N canvas 0 50 1920 997 10;
#X obj 100 109 cnv 15 100 80 empty empty Filtre 28 10 1 18 -66577 -260097
0;
#X obj 37 229 inlet~;
#X obj 39 481 outlet~;
#X obj 111 133 hsl 80 20 10 2000 0 1 empty empty Freq-488.608 0 10
1 12 -99865 -260097 -260097 1900 1;
#X obj 113 223 sig~;
#X obj 38 391 vcf~;
#X obj 111 157 hsl 80 20 1 100 0 1 empty empty Q-64.9114 0 10 1 12
-99865 -260097 -260097 5100 1;
#X obj 108 445 outlet~;
#X obj 38 434 *~;
#X obj 164 316 line~;
#X msg 167 279 \$1 10;
#X obj 160 246 * 1;
#X obj 267 117 inlet;
#X obj 325 113 inlet;
#X obj 325 135 clip 0 100;
#X msg 312 201 label Freq-\$1;
#X msg 313 229 label Q-\$1;
#X connect 1 0 5 0;
#X connect 3 0 4 0;
#X connect 3 0 15 0;
#X connect 4 0 5 1;
#X connect 5 0 8 0;
#X connect 5 1 7 0;
#X connect 6 0 5 2;
#X connect 6 0 11 0;
#X connect 6 0 16 0;
#X connect 8 0 2 0;
#X connect 9 0 8 1;
#X connect 10 0 9 0;
#X connect 11 0 10 0;
#X connect 12 0 3 0;
#X connect 13 0 14 0;
#X connect 14 0 6 0;
#X connect 15 0 3 0;
#X connect 16 0 6 0;
#X coords 0 -1 1 1 100 100 2 100 100;
